<svg width="409" height="151" viewBox="0 0 409 151" fill="none" xmlns="http://www.w3.org/2000/svg">
<mask id="mask0_24_40" style="mask-type:alpha" maskUnits="userSpaceOnUse" x="0" y="0" width="137" height="137">
<rect width="136.133" height="136.133" fill="#D9D9D9"/>
</mask>
<g mask="url(#mask0_24_40)">
<g filter="url(#filter0_f_24_40)">
<mask id="mask1_24_40" style="mask-type:alpha" maskUnits="userSpaceOnUse" x="-16" y="-16" width="168" height="168">
<rect x="-15.0279" y="-15.0276" width="166.188" height="166.188" fill="#D9D9D9"/>
</mask>
<g mask="url(#mask1_24_40)">
<path d="M61.152 156.048C39.7426 140.982 91.4007 113.535 145.079 91.6315C169.793 81.5463 193.482 105.752 184.264 130.804C181.436 138.492 175.788 144.876 168.23 148.036C137.949 160.696 87.5429 174.62 61.152 156.048Z" fill="#00C5FF"/>
<path d="M-57.4484 148.677C-66.9449 199.511 15.8701 160.548 55.6715 131.919C75.9213 131.919 98.1263 117.255 24.9476 58.6004C-48.231 -0.0542068 -62.3363 28.5748 -57.4484 53.0142C-53.4916 63.721 -47.952 97.8431 -57.4484 148.677Z" fill="#5600FF"/>
<path d="M49.3586 93.0607C37.2013 64.7408 2.95231 63.6875 -13.3743 66.7872C-13.87 66.8813 -14.3412 67.0273 -14.8083 67.218C-17.8955 68.4785 -21.4396 67.724 -23.7456 65.3151L-30.6157 58.1388C-36.2099 52.2952 -38.4383 43.8211 -34.8098 36.5908C-27.1968 21.4208 -12.1215 2.86542 11.614 0.616874C50.0996 -3.02898 43.4289 43.44 46.0148 42.3842C76.3084 30.0154 105.645 70.0738 111.516 102.264C112.674 108.612 113.243 113.463 112.796 115.43C110.911 123.742 64.7861 128.999 49.3586 93.0607Z" fill="#2200FF"/>
<path d="M-19.4623 7.00733C-35.9709 -33.1146 58.6376 -30.557 152.916 -17.8138C198.743 -11.6194 213.115 45.2215 177.486 74.7021C166.61 83.7011 152.691 88.3537 138.694 86.5173C84.4153 79.3955 1.11924 57.028 -19.4623 7.00733Z" fill="#00C5FF"/>
<path d="M87.1951 136.352C210.063 53.3755 218.486 16.1694 189.434 2.09912C142.644 -20.5622 0.522117 51.4266 49.6815 34.5077C53.0833 33.337 59.5465 30.6172 69.9252 25.901C126.155 0.349703 86.1018 90.8417 40.7599 132.779C-24.6897 193.315 -60.8048 236.3 87.1951 136.352Z" fill="#006BFF" stroke="#006BFF"/>
</g>
</g>
<path fill-rule="evenodd" clip-rule="evenodd" d="M59.2198 258.273L56.0651 163C54.001 100.665 105.086 49.5807 167.421 51.6448L262.693 54.7996L262.459 61.8675L167.186 58.7128C108.939 56.784 61.2043 104.519 63.133 162.766L66.2878 258.038L59.2198 258.273Z" fill="black"/>
<path fill-rule="evenodd" clip-rule="evenodd" d="M-3.52095 159.573L-3.52093 106.976C-3.52091 47.4151 44.7631 -0.868962 104.324 -0.86896L156.921 -0.868955L156.921 6.20288L104.324 6.20287C48.6688 6.20287 3.55091 51.3207 3.55091 106.976L3.55089 159.573L-3.52095 159.573Z" fill="black"/>
</g>
<path d="M359.111 106.958V103.681C359.111 102.642 358.551 102.082 357.512 102.082H345.842C344.803 102.082 344.244 102.642 344.244 103.681V106.958C344.244 107.997 344.803 108.557 345.842 108.557H357.512C358.551 108.557 359.111 107.997 359.111 106.958ZM370.861 136.133H341.606C334.172 136.133 330.415 132.456 330.415 125.102V100.244C330.415 92.89 334.012 89.2132 341.206 89.2132H362.628C369.422 89.2132 372.859 92.8101 372.859 99.9239V106.798C372.859 114.072 369.422 117.669 362.628 117.669H346.721C345.842 117.669 344.963 117.509 344.244 117.109V120.626C344.244 122.225 345.043 123.024 346.641 123.024H370.861V136.133Z" fill="white"/>
<path d="M325.139 136.133H301.719C294.285 136.133 290.528 132.616 290.528 125.502V100.244C290.528 92.89 294.205 89.2132 301.479 89.2132H324.979V103.121H306.754C305.156 103.121 304.356 103.92 304.356 105.519V119.747C304.356 121.425 305.156 122.305 306.754 122.305H325.139V136.133Z" fill="white"/>
<path d="M270.269 121.665V118.388C270.269 117.349 269.709 116.789 268.67 116.789H257C255.961 116.789 255.401 117.349 255.401 118.388V121.665C255.401 122.704 255.961 123.264 257 123.264H268.67C269.709 123.264 270.269 122.704 270.269 121.665ZM273.306 136.133H251.884C245.09 136.133 241.653 132.616 241.653 125.502V118.548C241.653 111.274 245.09 107.677 251.884 107.677H267.631C268.67 107.677 269.549 107.917 270.269 108.237V104.72C270.269 103.121 269.469 102.322 267.871 102.322H243.492V89.2132H272.906C280.34 89.2132 284.097 92.89 284.097 100.244V125.102C284.097 132.456 280.5 136.133 273.306 136.133Z" fill="white"/>
<path d="M224.77 136.133H207.025V151H193.197V89.2132H224.53C231.964 89.2132 235.721 92.7301 235.721 99.9239V125.102C235.721 132.456 232.044 136.133 224.77 136.133ZM221.893 119.827V105.599C221.893 103.921 221.093 103.041 219.495 103.041H207.025V122.225H219.495C221.093 122.225 221.893 121.425 221.893 119.827Z" fill="white"/>
<path d="M174.89 136.133H143.077V120.866H170.334C171.932 120.866 172.732 120.067 172.732 118.468V114.471C172.732 112.873 171.932 112.074 170.334 112.074H154.188C146.754 112.074 142.997 108.557 142.997 101.443V86.9751C142.997 79.2218 146.594 75.3851 153.788 75.3851H185.121V90.652H159.223C157.625 90.652 156.825 91.4513 156.825 93.0499V96.9665C156.825 98.5651 157.625 99.3645 159.223 99.3645H175.849C182.963 99.3645 186.48 102.961 186.48 110.075V124.303C186.48 132.216 182.643 136.133 174.89 136.133Z" fill="white"/>
<path d="M395.554 66.193H379.168L373.013 39.1763L365.66 66.193H349.514L338.003 19.2734H352.951L359.025 46.6099L365.5 19.2734H381.006L387.081 46.6099L393.716 19.2734H408.982L395.554 66.193Z" fill="white"/>
<path d="M321.724 49.967V35.5794C321.724 33.9807 320.924 33.1814 319.326 33.1814H309.174C307.576 33.1814 306.776 33.9807 306.776 35.5794V49.8071C306.776 51.4857 307.576 52.3649 309.174 52.3649H319.326C320.924 52.3649 321.724 51.5656 321.724 49.967ZM324.681 66.193H304.139C296.705 66.193 292.948 62.676 292.948 55.5622V30.3039C292.948 22.9502 296.625 19.2734 303.899 19.2734H324.521C331.795 19.2734 335.392 22.9502 335.392 30.3838V55.2424C335.392 62.5162 331.795 66.193 324.681 66.193Z" fill="white"/>
<path d="M272.859 49.967V35.5794C272.859 33.9807 272.06 33.1814 270.461 33.1814H260.31C258.712 33.1814 257.912 33.9807 257.912 35.5794V49.8071C257.912 51.4857 258.712 52.3649 260.31 52.3649H270.461C272.06 52.3649 272.859 51.5656 272.859 49.967ZM275.817 66.193H255.275C247.841 66.193 244.084 62.676 244.084 55.5622V30.3039C244.084 22.9502 247.761 19.2734 255.035 19.2734H275.657C282.931 19.2734 286.528 22.9502 286.528 30.3838V55.2424C286.528 62.5162 282.931 66.193 275.817 66.193Z" fill="white"/>
<path d="M226.402 81.0602H196.748V69.1505H221.127C222.726 69.1505 223.525 68.3511 223.525 66.7525V61.4771H205.78C198.506 61.4771 194.83 57.8002 194.83 50.4466V29.9842C194.83 22.7904 198.586 19.2734 206.02 19.2734H237.353V69.9498C237.353 77.3034 233.676 81.0602 226.402 81.0602ZM223.525 48.9279V32.7818H211.056C209.457 32.7818 208.658 33.661 208.658 35.3396V46.5299C208.658 48.1286 209.457 48.9279 211.056 48.9279H223.525Z" fill="white"/>
<path d="M176.968 66.193H154.427C146.994 66.193 143.237 62.6761 143.237 55.5622V5.44534H157.065V48.5282C157.065 50.1269 157.864 50.9262 159.463 50.9262H172.012C173.611 50.9262 174.41 50.1269 174.41 48.5282V5.44534H188.158V55.5622C188.158 62.6761 184.402 66.193 176.968 66.193Z" fill="white"/>
<defs>
<filter id="filter0_f_24_40" x="-27.8279" y="-27.8276" width="191.788" height="191.788" filterUnits="userSpaceOnUse" color-interpolation-filters="sRGB">
<feFlood flood-opacity="0" result="BackgroundImageFix"/>
<feBlend mode="normal" in="SourceGraphic" in2="BackgroundImageFix" result="shape"/>
<feGaussianBlur stdDeviation="6.4" result="effect1_foregroundBlur_24_40"/>
</filter>
</defs>
</svg>
